<?xml version="1.0" encoding="UTF-8" standalone="no"?>
<!-- Created with Inkscape (http://www.inkscape.org/) -->

<svg
   width="283.89392mm"
   height="207.55496mm"
   viewBox="0 0 1072.9849 784.45972"
   version="1.1"
   id="svg1"
   sodipodi:docname="ผังบ่อplain.svg"
   inkscape:export-filename="ผังบ่อplain.svg"
   inkscape:export-xdpi="96"
   inkscape:export-ydpi="96"
   inkscape:version="1.4.2 (f4327f4, 2025-05-13)"
   xmlns:inkscape="http://www.inkscape.org/namespaces/inkscape"
   xmlns:sodipodi="http://sodipodi.sourceforge.net/DTD/sodipodi-0.dtd"
   xmlns="http://www.w3.org/2000/svg"
   xmlns:svg="http://www.w3.org/2000/svg">
  <sodipodi:namedview
     id="namedview1"
     pagecolor="#ffffff"
     bordercolor="#cccccc"
     borderopacity="1"
     inkscape:showpageshadow="0"
     inkscape:pageopacity="1"
     inkscape:pagecheckerboard="0"
     inkscape:deskcolor="#d1d1d1"
     inkscape:document-units="mm"
     inkscape:zoom="0.9853916"
     inkscape:cx="536.84241"
     inkscape:cy="148.67186"
     inkscape:window-width="1920"
     inkscape:window-height="991"
     inkscape:window-x="-9"
     inkscape:window-y="-9"
     inkscape:window-maximized="1"
     inkscape:current-layer="layer1" />
  <defs
     id="defs1" />
  <g
     id="layer1"
     transform="translate(-50.312213,-93.43696)">
    <rect
       style="fill:#1a1a1a;stroke-width:1.35736"
       id="5Black"
       width="78.035263"
       height="78.035263"
       x="50.31221"
       y="93.436958" />
    <rect
       style="fill:#1a1a1a;stroke-width:1.08307"
       id="17Black"
       width="61.964897"
       height="62.568981"
       x="415.5798"
       y="99.589157" />
    <rect
       style="fill:#1a1a1a"
       id="rect2"
       width="128.34747"
       height="64.687126"
       x="188.92749"
       y="171.47223" />
    <rect
       style="fill:#1a1a1a"
       id="20Black"
       width="36.964073"
       height="36.964073"
       x="321.38208"
       y="312.14105" />
    <rect
       style="fill:#1a1a1a"
       id="rect4-6"
       width="36.964073"
       height="36.964073"
       x="361.5983"
       y="312.83932" />
    <rect
       style="fill:#1a1a1a"
       id="rect2-09"
       width="128.34747"
       height="64.687126"
       x="507.80341"
       y="171.16068" />
    <rect
       style="fill:#cccccc"
       id="Anodize_Tank_1"
       width="139.64206"
       height="262.85562"
       x="938.47675"
       y="615.04108" />
    <path
       style="fill:#ff0000;stroke-width:1.0694"
       d="M 189.95426,132.45459 V 101.6512 h 32.85696 32.85695 v 30.80339 30.8034 h -32.85695 -32.85696 z"
       id="2Red" />
    <path
       style="fill:#800080;stroke-width:1.02678"
       d="M 257.72173,132.45459 V 101.6512 h 30.29 30.29001 v 30.80339 30.8034 h -30.29001 -30.29 z"
       id="3Violet" />
    <path
       style="fill:#008000;stroke-width:1.05214"
       d="m 348.07835,131.42781 v -30.80339 h 32.34357 32.34356 v 30.80339 30.8034 h -32.34356 -32.34357 z"
       id="8Green" />
    <path
       style="fill:#d4aa00;stroke-width:1.06102"
       d="M 508.256,132.45459 V 101.6512 h 32.34357 32.34356 v 30.80339 30.8034 H 540.59957 508.256 Z"
       id="15Gold" />
    <path
       style="fill:#ff6600;stroke-width:1.03544"
       d="M 576.02347,132.45459 V 101.6512 h 30.80339 30.8034 v 30.80339 30.8034 h -30.8034 -30.80339 z"
       id="9Orange" />
    <path
       style="fill:#00ffff;stroke-width:1.01804"
       d="m 670.48721,133.48137 v -30.80339 h 29.77662 29.77661 v 30.80339 30.8034 h -29.77661 -29.77662 z"
       id="10LightBlue" />
    <path
       style="fill:#66ff00;stroke-width:1.02678"
       d="m 738.25468,133.48137 v -30.80339 h 30.29 30.29001 v 30.80339 30.8034 h -30.29001 -30.29 z"
       id="6BananaLeafGreen" />
    <path
       style="fill:#0000ff;stroke-width:1.05256"
       d="m 833.7452,135.02154 v -30.29 h 31.83017 31.83018 v 30.29 30.29001 H 865.57537 833.7452 Z"
       id="16Blue" />
    <path
       style="fill:#666666;stroke-width:1.06413"
       d="M 50.31221,412.76548 V 277.23055 H 80.088824 109.86544 V 412.76548 548.30041 H 80.088824 50.31221 Z"
       id="path15" />
    <path
       style="fill:#800000;stroke-width:1.02678"
       d="m 321.38208,371.1809 v -17.96865 h 17.96864 17.96865 v 17.96865 17.96865 h -17.96865 -17.96864 z"
       id="1DarkRedB" />
    <path
       style="fill:#800000;stroke-width:1.02678"
       d="m 361.42649,372.20768 v -17.96865 h 17.96865 17.96864 v 17.96865 17.96865 h -17.96864 -17.96865 z"
       id="path21" />
    <path
       style="fill:#ff00ff;stroke-width:1.02678"
       d="m 429.19396,351.15869 v -63.66035 h 41.07119 41.07119 v 63.66035 63.66035 h -41.07119 -41.07119 z"
       id="7Pink" />
    <path
       style="fill:#666666;stroke-width:1.02678"
       d="m 592.45195,354.75242 v -63.14696 h 40.5578 40.5578 v 63.14696 63.14696 h -40.5578 -40.5578 z"
       id="path24" />
    <path
       style="fill:#d4aa00;stroke-width:1.02678"
       d="M 591.42517,485.15346 V 422.0065 h 41.07119 41.07119 v 63.14696 63.14695 h -41.07119 -41.07119 z"
       id="11Gold" />
    <path
       style="fill:#800000;stroke-width:1.02678"
       d="m 836.82554,328.56954 v -30.8034 h 30.80339 30.8034 v 30.8034 30.80339 h -30.8034 -30.80339 z"
       id="1DarkRedA" />
    <path
       style="fill:#ffccaa;stroke-width:1.02678"
       d="m 836.82554,395.31022 v -30.80339 h 30.29 30.29001 v 30.80339 30.8034 h -30.29001 -30.29 z"
       id="19Copper" />
    <path
       style="fill:#6c6753;stroke-width:1.03534"
       d="m 836.82554,459.48396 v -30.29 h 30.79741 30.79743 v 30.29 30.29001 h -30.79743 -30.79741 z"
       id="12Titanium" />
    <path
       style="fill:#ffb0ff;fill-opacity:1;stroke-width:1.02678"
       d="m 836.82554,524.68448 v -30.80339 h 30.80339 30.8034 v 30.80339 30.80339 h -30.8034 -30.80339 z"
       id="14RoseGold" />
    <path
       style="fill:#aa8800;fill-opacity:1;stroke-width:0.809118"
       d="m 1043.2083,488.74719 v -31.83018 h 39.531 39.5311 v 31.83018 31.83017 h -39.5311 -39.531 z"
       id="path30" />
    <path
       style="fill:#6c5353;fill-opacity:1;stroke-width:1.04893"
       d="m 373.83584,213.17094 c -19.29948,-8.07878 -19.1579,-32.52767 0.23346,-40.31414 4.43693,-1.78161 15.4557,-1.78161 19.89259,0 19.50422,7.83178 19.50422,32.52382 0,40.35561 -4.35733,1.74965 -15.90405,1.72586 -20.12605,-0.0415 z"
       id="path31" />
    <path
       style="fill:#d45500;fill-opacity:1;stroke-width:1.00438"
       d="m 691.58392,219.89511 c -9.93521,-3.69831 -15.42263,-11.8545 -14.72799,-21.89087 1.08837,-15.72538 18.14117,-25.05109 32.78061,-17.92681 16.20303,7.8852 17.07093,29.10261 1.55155,37.9303 -6.616,3.76329 -12.93131,4.3713 -19.60417,1.88738 z"
       id="path36" />
    <path
       style="fill:#d45500;fill-opacity:1;stroke-width:1.01573"
       d="m 756.9342,219.86325 c -8.79438,-4.08239 -14.27755,-13.29291 -13.28272,-22.312 1.17031,-10.61024 11.70131,-19.27661 23.42409,-19.27661 14.88365,0 26.75216,14.54278 22.53218,27.6092 -1.63864,5.0737 -7.54585,11.65359 -12.55529,13.98497 -5.30329,2.46813 -14.79506,2.46551 -20.11826,-0.006 z"
       id="path37" />
    <path
       style="fill:#6c5353;fill-opacity:1;stroke-width:1.06034"
       d="m 437.78223,212.68135 c -5.7548,-2.45763 -12.17515,-9.24608 -13.67085,-14.45466 -2.196,-7.64716 2.04336,-16.34456 10.7701,-22.0958 4.28334,-2.82288 5.53554,-3.11849 13.20974,-3.11849 7.4972,0 9.10118,0.35687 13.86698,3.08533 11.06762,6.33631 14.34849,19.21934 7.31864,28.73824 -6.3357,8.57896 -21.14097,12.26699 -31.49461,7.84538 z"
       id="13DarkTitanium" />
    <path
       style="fill:#a7ffff;fill-opacity:1;stroke-width:1.02678"
       d="m 188.92748,203.81579 v -32.34356 h 64.17374 64.17374 v 32.34356 32.34356 h -64.17374 -64.17374 z"
       id="path39" />
    <path
       style="fill:#a7ffff;fill-opacity:1;stroke-width:1.02678"
       d="m 188.92748,203.81579 v -32.34356 h 64.17374 64.17374 v 32.34356 32.34356 h -64.17374 -64.17374 z"
       id="path40" />
    <path
       style="fill:#d0ffff;fill-opacity:1;stroke-width:1.02678"
       d="m 188.92748,203.81579 v -32.34356 h 64.17374 64.17374 v 32.34356 32.34356 h -64.17374 -64.17374 z"
       id="path52" />
    <path
       style="fill:#d0ffff;fill-opacity:1;stroke-width:1.02678"
       d="m 508.256,203.3024 v -31.83017 h 63.66035 63.66035 v 31.83017 31.83017 H 571.91635 508.256 Z"
       id="path53" />
    <path
       style="fill:#d0ffff;fill-opacity:1;stroke-width:1.02678"
       d="m 508.256,203.3024 v -31.83017 h 63.66035 63.66035 v 31.83017 31.83017 H 571.91635 508.256 Z"
       id="path54" />
    <text
       xml:space="preserve"
       style="font-size:34.095px;text-align:start;writing-mode:lr-tb;direction:ltr;text-anchor:start;fill:#000000;fill-opacity:1;stroke-width:2.84125"
       x="515.46552"
       y="227.74318"
       id="text67-6"
       transform="scale(1.0543661,0.94843718)"><tspan
         id="tspan67-5"
         x="515.46552"
         y="227.74318"
         style="stroke-width:2.84125">RO</tspan></text>
    <path
       style="fill:#d0ffff;fill-opacity:1;stroke-width:0.949335"
       d="m 834.77198,209.46308 v -31.83017 h 54.41933 54.41933 v 31.83017 31.83017 h -54.41933 -54.41933 z"
       id="path55" />
    <path
       style="fill:#d0ffff;fill-opacity:1;stroke-width:1.03503"
       d="m 834.77198,209.46308 v -31.83017 h 64.68713 64.68713 v 31.83017 31.83017 h -64.68713 -64.68713 z"
       id="path56" />
    <text
       xml:space="preserve"
       style="font-size:34.095px;text-align:start;writing-mode:lr-tb;direction:ltr;text-anchor:start;fill:#000000;fill-opacity:1;stroke-width:2.84125"
       x="823.70764"
       y="230.90628"
       id="text67-68"
       transform="scale(1.0543661,0.94843718)"><tspan
         id="tspan67-3"
         x="823.70764"
         y="230.90628"
         style="stroke-width:2.84125">RO</tspan></text>
    <path
       style="fill:#d0ffff;fill-opacity:1;stroke-width:1.02678"
       d="m 902.53945,360.9131 v -63.14696 h 40.5578 40.5578 v 63.14696 63.14696 h -40.5578 -40.5578 z"
       id="path57" />
    <text
       xml:space="preserve"
       style="font-size:34.095px;text-align:start;writing-mode:lr-tb;direction:ltr;text-anchor:start;fill:#000000;fill-opacity:1;stroke-width:2.84125"
       x="869.48657"
       y="391.16992"
       id="text67-3"
       transform="scale(1.0543661,0.94843717)"><tspan
         id="tspan67-7"
         x="869.48657"
         y="391.16992"
         style="stroke-width:2.84125">RO</tspan></text>
    <path
       style="fill:#d0ffff;fill-opacity:1;stroke-width:1.02678"
       d="m 903.56623,493.3677 v -63.14696 h 40.5578 40.5578 v 63.14696 63.14695 h -40.5578 -40.5578 z"
       id="path58" />
    <text
       xml:space="preserve"
       style="font-size:34.095px;text-align:start;writing-mode:lr-tb;direction:ltr;text-anchor:start;fill:#000000;fill-opacity:1;stroke-width:2.84125"
       x="868.58899"
       y="520.82874"
       id="text67-8"
       transform="scale(1.0543661,0.94843717)"><tspan
         id="tspan67-8"
         x="868.58899"
         y="520.82874"
         style="stroke-width:2.84125">RO</tspan></text>
    <path
       style="fill:#d0ffff;fill-opacity:1;stroke-width:1.02678"
       d="m 679.72823,354.75241 v -63.14696 h 40.5578 40.5578 v 63.14696 63.14696 h -40.5578 -40.5578 z"
       id="path59" />
    <path
       style="fill:#d0ffff;fill-opacity:1;stroke-width:1.02678"
       d="M 679.72823,485.15346 V 422.0065 h 40.5578 40.5578 v 63.14696 63.14695 h -40.5578 -40.5578 z"
       id="path60" />
    <text
       xml:space="preserve"
       style="font-size:34.095px;text-align:start;writing-mode:lr-tb;direction:ltr;text-anchor:start;fill:#000000;fill-opacity:1;stroke-width:2.84125"
       x="654.93665"
       y="513.53284"
       id="text67-2"
       transform="scale(1.0543661,0.94843717)"><tspan
         id="tspan67-89"
         x="654.93665"
         y="513.53284"
         style="stroke-width:2.84125">RO</tspan></text>
    <path
       style="fill:#d0ffff;fill-opacity:1;stroke-width:1.02678"
       d="m 430.22074,486.18024 v -63.14696 h 40.5578 40.5578 v 63.14696 63.14695 h -40.5578 -40.5578 z"
       id="path61" />
    <text
       xml:space="preserve"
       style="font-size:34.095px;text-align:start;writing-mode:lr-tb;direction:ltr;text-anchor:start;fill:#000000;fill-opacity:1;stroke-width:2.84125"
       x="422.64569"
       y="514.53076"
       id="text67-5"
       transform="scale(1.0543661,0.94843717)"><tspan
         id="tspan67-86"
         x="422.64569"
         y="514.53076"
         style="stroke-width:2.84125">RO</tspan></text>
    <path
       style="fill:#d0ffff;fill-opacity:1;stroke-width:0.829868"
       d="m 1039.1012,343.97123 v -31.83017 h 41.5846 41.5846 v 31.83017 31.83018 h -41.5846 -41.5846 z"
       id="path62" />
    <text
       xml:space="preserve"
       style="font-size:34.095px;text-align:start;writing-mode:lr-tb;direction:ltr;text-anchor:start;fill:#000000;fill-opacity:1;stroke-width:2.84125"
       x="1005.4775"
       y="375.43915"
       id="text67-9"
       transform="scale(1.0543661,0.94843717)"><tspan
         id="tspan67-2"
         x="1005.4775"
         y="375.43915"
         style="stroke-width:2.84125">RO</tspan></text>
    <path
       style="fill:#cfcfcf;fill-opacity:1;stroke-width:0.82473"
       d="m 1040.1279,205.35596 v -31.83017 h 41.0712 41.0712 v 31.83017 31.83017 h -41.0712 -41.0712 z"
       id="path63" />
    <text
       xml:space="preserve"
       style="font-size:16.3277px;text-align:start;writing-mode:lr-tb;direction:ltr;text-anchor:start;fill:#000000;fill-opacity:1;stroke-width:1.36064"
       x="1651.5479"
       y="128.5636"
       id="text95-5-1"
       transform="scale(0.63710791,1.5695928)"><tspan
         id="tspan95-8-8"
         x="1651.5479"
         y="128.5636"
         style="stroke-width:1.36064;fill:#000000;fill-opacity:1">   Sodium</tspan><tspan
         x="1651.5479"
         y="148.97322"
         style="stroke-width:1.36064;fill:#000000;fill-opacity:1"
         id="tspan106-1"> Bicabonate</tspan></text>
    <path
       style="fill:#cbcbcb;fill-opacity:1;stroke-width:0.834975"
       d="m 1039.1012,275.17699 v -31.83018 h 42.0979 42.098 v 31.83018 31.83017 h -42.098 -42.0979 z"
       id="path64" />
    <text
       xml:space="preserve"
       style="font-size:16.3277px;text-align:start;writing-mode:lr-tb;direction:ltr;text-anchor:start;fill:#000000;fill-opacity:1;stroke-width:1.36064"
       x="1647.1156"
       y="170.09546"
       id="text95-5"
       transform="scale(0.63710791,1.5695928)"><tspan
         id="tspan95-8"
         x="1647.1156"
         y="170.09546"
         style="stroke-width:1.36064;fill:#000000;fill-opacity:1">   Sodium</tspan><tspan
         x="1647.1156"
         y="190.50508"
         style="stroke-width:1.36064;fill:#000000;fill-opacity:1"
         id="tspan106"> Bicabonate</tspan></text>
    <text
       xml:space="preserve"
       style="font-size:16.9615px;text-align:start;writing-mode:lr-tb;direction:ltr;text-anchor:start;fill:#ffffff;fill-opacity:1;stroke-width:1.41346"
       x="67.30423"
       y="124.27165"
       id="text66"
       transform="scale(0.91067235,1.0980898)"><tspan
         id="tspan66"
         x="67.30423"
         y="124.27165"
         style="stroke-width:1.41346">5.Black</tspan></text>
    <text
       xml:space="preserve"
       style="font-size:34.095px;text-align:start;writing-mode:lr-tb;direction:ltr;text-anchor:start;fill:#000000;fill-opacity:1;stroke-width:2.84125"
       x="213.9735"
       y="224.8566"
       id="text67"
       transform="scale(1.0543661,0.94843719)"><tspan
         id="tspan67"
         x="213.9735"
         y="224.8566"
         style="stroke-width:2.84125">RO</tspan></text>
    <text
       xml:space="preserve"
       style="font-size:34.095px;text-align:start;writing-mode:lr-tb;direction:ltr;text-anchor:start;fill:#000000;fill-opacity:1;stroke-width:2.84125"
       x="655.85962"
       y="383.76111"
       id="text67-98"
       transform="scale(1.0543661,0.94843717)"><tspan
         id="tspan67-9"
         x="655.85962"
         y="383.76111"
         style="stroke-width:2.84125">RO</tspan></text>
    <text
       xml:space="preserve"
       style="font-size:17.5265px;text-align:start;writing-mode:lr-tb;direction:ltr;text-anchor:start;fill:#000000;fill-opacity:1;stroke-width:1.46054"
       x="225.26978"
       y="122.57102"
       id="text68"
       transform="scale(0.87850866,1.1382927)"><tspan
         id="tspan68"
         x="225.26978"
         y="122.57102"
         style="stroke-width:1.46054">2.Red</tspan></text>
    <text
       xml:space="preserve"
       style="font-size:15.6492px;text-align:start;writing-mode:lr-tb;direction:ltr;text-anchor:start;fill:#cfcfcf;fill-opacity:1;stroke-width:1.30411"
       x="336.37811"
       y="107.83205"
       id="text69"
       transform="scale(0.78441475,1.2748358)"><tspan
         id="tspan69"
         x="336.37811"
         y="107.83205"
         style="stroke-width:1.30411">3.Violet</tspan></text>
    <text
       xml:space="preserve"
       style="font-size:17.2131px;text-align:start;writing-mode:lr-tb;direction:ltr;text-anchor:start;fill:#cfcfcf;fill-opacity:1;stroke-width:1.43443"
       x="412.53857"
       y="113.52957"
       id="text70"
       transform="scale(0.85088922,1.1752411)"><tspan
         id="tspan70"
         x="412.53857"
         y="113.52957"
         style="stroke-width:1.43443">8.Green</tspan></text>
    <text
       xml:space="preserve"
       style="font-size:15.2619px;text-align:start;writing-mode:lr-tb;direction:ltr;text-anchor:start;fill:#cfcfcf;fill-opacity:1;stroke-width:1.27184"
       x="510.33011"
       y="110.05587"
       id="text71"
       transform="scale(0.81874865,1.2213761)"><tspan
         id="tspan71"
         x="510.33011"
         y="110.05587"
         style="stroke-width:1.27184">17.Black</tspan></text>
    <text
       xml:space="preserve"
       style="font-size:17.0449px;text-align:start;writing-mode:lr-tb;direction:ltr;text-anchor:start;fill:#cfcfcf;fill-opacity:1;stroke-width:1.42041"
       x="603.31836"
       y="116.07219"
       id="text72"
       transform="scale(0.85042178,1.1758871)"><tspan
         id="tspan72"
         x="603.31836"
         y="116.07219"
         style="stroke-width:1.42041">15.Gold</tspan></text>
    <text
       xml:space="preserve"
       style="font-size:15.9262px;text-align:start;writing-mode:lr-tb;direction:ltr;text-anchor:start;fill:#cfcfcf;fill-opacity:1;stroke-width:1.32718"
       x="753.01807"
       y="105.08736"
       id="text73"
       transform="scale(0.76766363,1.3026539)"><tspan
         id="tspan73"
         x="753.01807"
         y="105.08736"
         style="stroke-width:1.32718">9.Orange</tspan></text>
    <text
       xml:space="preserve"
       style="font-size:13.9987px;text-align:start;writing-mode:lr-tb;direction:ltr;text-anchor:start;fill:#000000;fill-opacity:1;stroke-width:1.16656"
       x="722.58063"
       y="120.63703"
       id="text74"
       transform="scale(0.93060964,1.0745644)"><tspan
         id="tspan74"
         x="722.58063"
         y="120.63703"
         style="stroke-width:1.16656">10.Light</tspan><tspan
         x="722.58063"
         y="138.13541"
         id="tspan75"
         style="stroke-width:1.16656">   Blue</tspan></text>
    <text
       xml:space="preserve"
       style="font-size:12.5251px;text-align:start;writing-mode:lr-tb;direction:ltr;text-anchor:start;fill:#000000;fill-opacity:1;stroke-width:1.04376"
       x="803.63654"
       y="111.90152"
       id="text76"
       transform="scale(0.92250666,1.084003)"><tspan
         id="tspan76"
         x="803.63654"
         y="111.90152"
         style="stroke-width:1.04376">6.Banana</tspan><tspan
         x="803.63654"
         y="127.55789"
         id="tspan77"
         style="stroke-width:1.04376">    Leaf</tspan><tspan
         x="803.63654"
         y="143.21426"
         id="tspan78"
         style="stroke-width:1.04376">   Green</tspan></text>
    <path
       style="fill:#000080;fill-opacity:1;stroke-width:1.02678"
       d="m 899.45914,134.50815 v -30.80339 h 31.3168 31.3167 v 30.80339 30.8034 h -31.3167 -31.3168 z"
       id="4DarkBlue" />
    <text
       xml:space="preserve"
       style="font-size:15.8223px;text-align:start;writing-mode:lr-tb;direction:ltr;text-anchor:start;fill:#ffffff;fill-opacity:1;stroke-width:1.31852"
       x="928.83105"
       y="125.91586"
       id="text79"
       transform="scale(0.9017062,1.1090087)"><tspan
         id="tspan79"
         x="928.83105"
         y="125.91586"
         style="stroke-width:1.31852">16.Blue</tspan></text>
    <text
       xml:space="preserve"
       style="font-size:13.7726px;text-align:start;writing-mode:lr-tb;direction:ltr;text-anchor:start;fill:#ffffff;fill-opacity:1;stroke-width:1.14772"
       x="962.68213"
       y="124.82876"
       id="text80"
       transform="scale(0.94369543,1.0596639)"><tspan
         id="tspan80"
         x="962.68213"
         y="124.82876"
         style="stroke-width:1.14772">4.Dark</tspan><tspan
         x="962.68213"
         y="142.04449"
         id="tspan100"
         style="stroke-width:1.14772">  Blue</tspan></text>
    <text
       xml:space="preserve"
       style="font-size:17.2605px;text-align:start;writing-mode:lr-tb;direction:ltr;text-anchor:start;fill:#000000;fill-opacity:1;stroke-width:1.43838"
       x="322.73776"
       y="302.12613"
       id="text81"
       transform="scale(0.99770913,1.0022961)"><tspan
         x="322.73776"
         y="302.12613"
         id="tspan82"
         style="fill:#000000;fill-opacity:1;stroke-width:1.43838">20.Black</tspan></text>
    <text
       xml:space="preserve"
       style="font-size:17.532px;text-align:start;writing-mode:lr-tb;direction:ltr;text-anchor:start;fill:#000000;fill-opacity:1;stroke-width:1.461"
       x="376.82074"
       y="349.61859"
       id="text83"
       transform="scale(0.8460601,1.1819491)"><tspan
         x="376.82074"
         y="349.61859"
         id="tspan97"
         style="fill:#000000;fill-opacity:1;stroke-width:1.461">1.DarkRed</tspan></text>
    <text
       xml:space="preserve"
       style="font-size:28.0257px;text-align:start;writing-mode:lr-tb;direction:ltr;text-anchor:start;fill:#ffffff;fill-opacity:1;stroke-width:2.33547"
       x="365.68323"
       y="-419.34894"
       id="text84"
       transform="matrix(-0.00743802,0.90672233,-1.1032101,0.04103359,0,0)"><tspan
         id="tspan84"
         x="365.68323"
         y="-419.34894"
         style="stroke-width:2.33547">7.Pink</tspan></text>
    <text
       xml:space="preserve"
       style="font-size:26.2311px;text-align:start;writing-mode:lr-tb;direction:ltr;text-anchor:start;fill:#ffffff;fill-opacity:1;stroke-width:2.18592"
       x="511.84656"
       y="-553.18402"
       id="text85"
       transform="matrix(-0.00681391,0.88345554,-1.1320883,0.02197016,0,0)"><tspan
         id="tspan85"
         x="511.84656"
         y="-553.18402"
         style="stroke-width:2.18592">11.Gold</tspan></text>
    <text
       xml:space="preserve"
       style="font-size:16.7304px;text-align:start;writing-mode:lr-tb;direction:ltr;text-anchor:start;fill:#ffffff;fill-opacity:1;stroke-width:1.3942"
       x="1084.6891"
       y="250.85658"
       id="text86"
       transform="scale(0.77798799,1.2853669)"><tspan
         id="tspan86"
         x="1084.6891"
         y="250.85658"
         style="stroke-width:1.3942">1.Dark</tspan><tspan
         x="1084.6891"
         y="271.76959"
         style="stroke-width:1.3942"
         id="tspan105">  Red</tspan></text>
    <text
       xml:space="preserve"
       style="font-size:14.8522px;text-align:start;writing-mode:lr-tb;direction:ltr;text-anchor:start;fill:#000000;fill-opacity:1;stroke-width:1.23769"
       x="1303.7947"
       y="259.93082"
       id="text87"
       transform="scale(0.64598987,1.5480119)"><tspan
         id="tspan87"
         x="1303.7947"
         y="259.93082"
         style="fill:#000000;fill-opacity:1;stroke-width:1.23769">19.Copper</tspan></text>
    <text
       xml:space="preserve"
       style="font-size:13.6866px;text-align:start;writing-mode:lr-tb;direction:ltr;text-anchor:start;fill:#ffffff;fill-opacity:1;stroke-width:1.14055"
       x="1160.1968"
       y="337.77838"
       id="text88"
       transform="scale(0.72154815,1.3859089)"><tspan
         id="tspan88"
         x="1160.1968"
         y="337.77838"
         style="fill:#ffffff;fill-opacity:1;stroke-width:1.14055">12.Titanium</tspan></text>
    <text
       xml:space="preserve"
       style="font-size:16.0847px;text-align:start;writing-mode:lr-tb;direction:ltr;text-anchor:start;fill:#000000;fill-opacity:1;stroke-width:1.34039"
       x="1063.0823"
       y="412.02402"
       id="text89"
       transform="scale(0.79484319,1.2581098)"><tspan
         id="tspan89"
         x="1063.0823"
         y="412.02402"
         style="fill:#000000;fill-opacity:1;stroke-width:1.34039">14.Rose</tspan><tspan
         x="1063.0823"
         y="432.12988"
         id="tspan1"
         style="fill:#000000;fill-opacity:1;stroke-width:1.34039">  Gold</tspan></text>
    <text
       xml:space="preserve"
       style="font-size:25.998px;text-align:start;writing-mode:lr-tb;direction:ltr;text-anchor:start;white-space:pre;inline-size:223.591;display:inline;fill:#000000;fill-opacity:1;stroke-width:2.1665"
       x="1913.0569"
       y="349.93817"
       id="text90"
       transform="matrix(-0.00245554,1.0453547,-0.90265806,0.02080762,1319.7803,-1364.6654)"><tspan
         x="1913.0569"
         y="349.93817"
         id="tspan3">AnodizedPPool1</tspan></text>
    <text
       xml:space="preserve"
       style="font-size:24.3582px;text-align:start;writing-mode:lr-tb;direction:ltr;text-anchor:start;fill:#ffffff;fill-opacity:1;stroke-width:2.02985"
       x="292.21387"
       y="-79.332718"
       id="text91"
       transform="matrix(-0.01196189,1.0087846,-0.99180472,0.04324767,0,0)"><tspan
         x="292.21387"
         y="-79.332718"
         id="tspan93"
         style="stroke-width:2.02985">AlmiteSealerLiquid</tspan></text>
    <text
       xml:space="preserve"
       style="font-size:23.8904px;text-align:start;writing-mode:lr-tb;direction:ltr;text-anchor:start;fill:#ffffff;fill-opacity:1;stroke-width:1.99087"
       x="828.20001"
       y="257.14844"
       id="text94"
       transform="scale(0.72711331,1.3753015)"><tspan
         id="tspan94"
         x="828.20001"
         y="257.14844"
         style="stroke-width:1.99087">HotSeal</tspan><tspan
         x="828.20001"
         y="287.01144"
         style="stroke-width:1.99087"
         id="tspan101">  H60</tspan></text>
    <text
       xml:space="preserve"
       style="font-size:15.523px;text-align:start;writing-mode:lr-tb;direction:ltr;text-anchor:start;fill:#ffffff;fill-opacity:1;stroke-width:1.29358"
       x="916.83331"
       y="557.63647"
       id="text96"
       transform="scale(1.1478657,0.87118207)"><tspan
         id="tspan96"
         x="916.83331"
         y="557.63647"
         style="stroke-width:1.29358"> Nitric</tspan><tspan
         x="916.83331"
         y="577.04022"
         id="tspan2"
         style="stroke-width:1.29358">Acid68</tspan></text>
    <text
       xml:space="preserve"
       style="font-size:15.6189px;text-align:start;writing-mode:lr-tb;direction:ltr;text-anchor:start;fill:#000000;fill-opacity:1;stroke-width:1.30157"
       x="404.44339"
       y="212.8942"
       id="text98"
       transform="scale(0.90605003,1.1036918)"><tspan
         id="tspan98"
         x="404.44339"
         y="212.8942"
         style="stroke-width:1.30157">DarkTitanium</tspan></text>
    <text
       xml:space="preserve"
       style="font-size:15.0139px;text-align:start;writing-mode:lr-tb;direction:ltr;text-anchor:start;fill:#000000;fill-opacity:1;stroke-width:1.25115"
       x="654.60388"
       y="255.31747"
       id="text99"
       transform="scale(1.0647775,0.93916335)"><tspan
         id="tspan99"
         x="654.60388"
         y="255.31747"
         style="stroke-width:1.25115">OrangeOil</tspan></text>
  </g>
</svg>
